HIERARCHY
ROOT Hips
{
	OFFSET 0.000000 0.000000 0.000000
	CHANNELS 6 Xposition Yposition Zposition Zrotation Yrotation Xrotation 
	JOINT LHipJoint
	{
		OFFSET 0.000000 0.000000 0.000000
		CHANNELS 3 Zrotation Yrotation Xrotation
		JOINT LeftUpLeg
		{
			OFFSET 1.363060 -1.794630 0.839290
			CHANNELS 3 Zrotation Yrotation Xrotation
			JOINT LeftLeg
			{
				OFFSET 2.448110 -6.726130 0.000000
				CHANNELS 3 Zrotation Yrotation Xrotation
				JOINT LeftFoot
				{
					OFFSET 2.562200 -7.039590 0.000000
					CHANNELS 3 Zrotation Yrotation Xrotation
					JOINT LeftToeBase
					{
						OFFSET 0.157640 -0.433110 2.322550
						CHANNELS 3 Zrotation Yrotation Xrotation
						End Site
						{
							OFFSET 0.000000 0.000000 0.000000
						}
					}
				}
			}
		}
	}
	JOINT RHipJoint
	{
		OFFSET 0.000000 0.000000 0.000000
		CHANNELS 3 Zrotation Yrotation Xrotation
		JOINT RightUpLeg
		{
			OFFSET -1.305520 -1.794630 0.839290
			CHANNELS 3 Zrotation Yrotation Xrotation
			JOINT RightLeg
			{
				OFFSET -2.542530 -6.985550 0.000000
				CHANNELS 3 Zrotation Yrotation Xrotation
				JOINT RightFoot
				{
					OFFSET -2.568260 -7.056230 0.000000
					CHANNELS 3 Zrotation Yrotation Xrotation
					JOINT RightToeBase
					{
						OFFSET -0.164730 -0.452590 2.363150
						CHANNELS 3 Zrotation Yrotation Xrotation
						End Site
						{
							OFFSET 0.000000 0.000000 0.000000
						}
					}
				}
			}
		}
	}
}
MOTION
Frames: 30
Frame Time: 0.008333
27.860922 16.453355 4.832034 -165.917583 -86.277438 -171.990928 -11.468899 3.172992 -1.840621 -4.508135 9.210975 0.820827 -1.308230 0.354877 13.830483 1.661503 11.942986 -1.098689 1.315800 0.000000 -74.666099 8.236046 0.401287 4.605706 2.990790 10.907144 -52.481992 1.850872 -0.923114 18.825427 -0.431682 -2.927827 8.532358 -1.742000 0.000000 -35.927700
27.703168 16.464450 4.787122 -160.865832 -86.338226 -176.946999 -11.509059 3.131223 -1.830150 -3.992754 9.074234 0.357102 -1.129565 0.487500 15.284683 1.710815 12.456469 0.358720 1.681100 0.000001 -76.544501 8.178369 0.284917 4.591792 3.434092 11.264076 -52.595705 1.816501 -1.071854 20.117585 -0.445630 -2.868881 8.176834 -1.683900 -0.000000 -35.925500
27.546498 16.478321 4.741409 -156.229565 -86.387553 178.487313 -11.577364 3.078832 -1.833342 -3.485216 9.007361 -0.211340 -0.941855 0.623231 16.910405 1.767739 12.981393 1.931338 2.087800 0.000000 -77.876900 8.097643 0.161612 4.569183 3.889595 11.594392 -52.599790 1.799626 -1.200109 21.323897 -0.461307 -2.796443 7.563200 -1.609500 -0.000000 -35.754700
27.391135 16.494831 4.694924 -152.055784 -86.422462 174.365347 -11.667955 3.018719 -1.845186 -2.996123 9.001357 -0.891697 -0.749878 0.759586 18.701387 1.834908 13.518028 3.587259 2.530400 -0.000000 -78.460900 8.003410 0.038927 4.537812 4.356876 11.887653 -52.489533 1.799530 -1.305889 22.413979 -0.480223 -2.726605 6.747668 -1.528100 -0.000001 -35.437500
27.237206 16.513824 4.647698 -148.342313 -86.447241 170.689792 -11.771290 2.951548 -1.860174 -2.537656 9.038485 -1.685648 -0.559197 0.892873 20.644992 1.914114 14.065925 5.275392 2.999000 0.000000 -78.122100 7.905674 -0.077718 4.498947 4.832692 12.132312 -52.267097 1.814628 -1.388633 23.362969 -0.503385 -2.669578 5.793309 -1.445800 -0.000000 -35.003500
27.085259 16.535134 4.599880 -145.005926 -86.471385 167.380967 -11.878475 2.875558 -1.873793 -2.119398 9.098833 -2.591357 -0.375664 1.019126 22.724512 2.005064 14.619784 6.925240 3.477900 -0.000000 -76.738000 7.811422 -0.186620 4.454622 5.313311 12.318122 -51.940432 1.843392 -1.448929 24.151409 -0.530958 -2.630177 4.764334 -1.366300 0.000000 -34.481600
26.935170 16.558641 4.551772 -141.923000 -86.505328 164.321661 -11.983324 2.788736 -1.882514 -1.747838 9.163239 -3.603830 -0.204985 1.135358 24.919562 2.104924 15.168473 8.453883 3.945900 0.000000 -74.273000 7.724061 -0.289233 4.407166 5.795401 12.437977 -51.520903 1.884429 -1.488079 24.766647 -0.562017 -2.608093 3.720626 -1.291699 0.000000 -33.899500
26.787119 16.584163 4.503447 -139.099012 -86.555269 161.519749 -12.079106 2.692488 -1.883914 -1.439164 9.212216 -4.713348 -0.053121 1.241096 27.201952 2.209661 15.703896 9.777102 4.380500 -0.000001 -70.801900 7.647998 -0.384452 4.357621 6.267428 12.484533 -51.025228 1.935074 -1.508236 25.209401 -0.593664 -2.593392 2.712915 -1.221200 0.000000 -33.301700
26.641406 16.611494 4.455734 -136.110551 -86.633303 158.552801 -12.172707 2.580528 -1.878329 -1.170292 9.244985 -5.916970 0.080207 1.336213 29.554794 2.311953 16.197099 10.821926 4.752400 -0.000000 -66.565800 7.572448 -0.484528 4.310444 6.741739 12.467988 -50.459421 1.996432 -1.510641 25.469260 -0.625701 -2.591972 1.782468 -1.158800 0.000000 -32.690100
26.497916 16.640553 4.408358 -133.186609 -86.734770 155.652247 -12.256858 2.460563 -1.865090 -0.969296 9.242220 -7.195289 0.191912 1.424344 31.934800 2.408550 16.651704 11.544840 5.048300 -0.000000 -61.863500 7.504556 -0.582504 4.263459 7.196823 12.384389 -49.842962 2.064232 -1.498134 25.568174 -0.652940 -2.581765 0.954090 -1.100500 0.000000 -32.119200
26.357175 16.671163 4.361660 -130.187029 -86.859114 152.676348 -12.335239 2.332718 -1.845540 -0.828824 9.200977 -8.535495 0.284775 1.508284 34.313271 2.495475 17.056660 11.929785 5.255401 -0.000000 -57.065300 7.439225 -0.681859 4.217321 7.633152 12.245640 -49.182578 2.137596 -1.472294 25.515760 -0.673649 -2.558606 0.241404 -1.047100 0.000000 -31.601799
26.218922 16.703228 4.315749 -127.101742 -87.000759 149.614418 -12.409143 2.199234 -1.820808 -0.748407 9.116267 -9.920794 0.361894 1.590695 36.657339 2.571171 17.410886 11.989470 5.371100 0.000000 -52.514701 7.374717 -0.781997 4.171083 8.046886 12.063607 -48.483487 2.214994 -1.434567 25.327915 -0.686140 -2.516118 -0.355268 -0.997900 0.000001 -31.144200
26.083542 16.736640 4.270667 -123.971669 -87.151542 146.505005 -12.478489 2.062719 -1.792972 -0.726781 8.987557 -11.334501 0.425792 1.674046 38.940265 2.634821 17.711550 11.745278 5.395300 0.000001 -48.386199 7.310929 -0.880426 4.123108 8.434591 11.851097 -47.747494 2.294869 -1.386113 25.021955 -0.689604 -2.450149 -0.845449 -0.952200 0.000000 -30.743000
25.950749 16.771357 4.226345 -120.863715 -87.303096 143.412437 -12.542339 1.925256 -1.762647 -0.760794 8.812272 -12.757280 0.479853 1.758974 41.130593 2.688461 17.970469 11.255007 5.343201 -0.000000 -44.975000 7.248582 -0.974469 4.072067 8.794221 11.621726 -46.971574 2.375802 -1.327566 24.612376 -0.684521 -2.361164 -1.244685 -0.909100 -0.000000 -30.382800
25.821138 16.807270 4.182631 -117.910040 -87.446492 140.463259 -12.596971 1.789444 -1.734125 -0.846264 8.600658 -14.175199 0.524040 1.847158 43.212968 2.730903 18.175765 10.531161 5.211000 -0.000000 -42.053500 7.191076 -1.059604 4.015809 9.123914 11.386777 -46.152091 2.456245 -1.259770 24.114868 -0.672074 -2.251230 -1.573348 -0.867701 -0.000000 -30.049200
25.694113 16.844308 4.139385 -115.206391 -87.575610 137.751351 -12.639761 1.656429 -1.707101 -0.976228 8.353941 -15.569675 0.561268 1.936631 45.156172 2.766002 18.347349 9.659411 5.026700 0.000000 -39.920200 7.140672 -1.133975 3.953942 9.424870 11.156800 -45.280809 2.535173 -1.182806 23.536724 -0.654508 -2.127795 -1.849315 -0.828100 -0.000001 -29.718800
25.569724 16.882339 4.096371 -112.897855 -87.685588 135.418172 -12.665744 1.527851 -1.685728 -1.144824 8.086262 -16.929879 0.590535 2.027214 46.948413 2.793149 18.476909 8.651737 4.789800 0.000000 -38.199200 7.101920 -1.194393 3.884939 9.697682 10.937287 -44.352564 2.611432 -1.097368 22.886957 -0.633809 -1.996631 -2.089515 -0.789800 -0.000000 -29.374200
25.447960 16.921265 4.053452 -111.072781 -87.774302 133.546603 -12.672366 1.403785 -1.669727 -1.344394 7.804116 -18.242373 0.613623 2.115821 48.565884 2.815942 18.583108 7.586799 4.527500 0.000001 -37.063400 7.077125 -1.240444 3.808997 9.945273 10.731650 -43.359337 2.684338 -1.003579 22.166876 -0.612259 -1.866674 -2.304130 -0.753300 0.000000 -29.000100
25.328331 16.960905 4.010464 -109.818003 -87.841405 132.222823 -12.656881 1.284967 -1.660213 -1.569356 7.518809 -19.499182 0.630327 2.200256 49.995711 2.835952 18.673134 6.501916 4.252300 -0.000000 -36.346000 7.069267 -1.271740 3.726073 10.169796 10.538583 -42.297494 2.753266 -0.901846 21.378214 -0.591230 -1.743372 -2.498806 -0.719200 -0.000000 -28.588899
25.210777 17.001079 3.967299 -109.185196 -87.888051 131.494609 -12.618112 1.171823 -1.656979 -1.814944 7.240238 -20.694699 0.640719 2.278208 51.227381 2.855317 18.758566 5.438022 3.978800 -0.000001 -35.962700 7.080077 -1.288821 3.636689 10.373643 10.354234 -41.165093 2.817750 -0.792667 20.521637 -0.571337 -1.630131 -2.673347 -0.687699 -0.000000 -28.138600
25.094598 17.041490 3.923900 -109.217086 -87.915540 131.406542 -12.554875 1.065054 -1.660205 -2.079567 6.977329 -21.829054 0.644158 2.348114 52.255132 2.875827 18.849563 4.421265 3.717300 0.000000 -35.780600 7.111604 -1.291671 3.540734 10.558312 10.171718 -39.967787 2.877485 -0.676919 19.600313 -0.552032 -1.525513 -2.823870 -0.658700 -0.000000 -27.659400
24.979623 17.081918 3.880261 -109.925753 -87.925798 131.968266 -12.468454 0.966469 -1.667398 -2.360684 6.738190 -22.899744 0.640266 2.408511 53.075910 2.899096 18.955766 3.472345 3.475700 -0.000000 -35.704000 7.164090 -1.282254 3.439986 10.725854 9.983603 -38.707694 2.932328 -0.555313 18.617195 -0.532240 -1.426428 -2.943666 -0.632400 -0.000000 -27.159000
24.865363 17.121996 3.836436 -111.327179 -87.919058 133.201826 -12.359164 0.877607 -1.677707 -2.659217 6.527721 -23.912832 0.627827 2.459309 53.691929 2.926127 19.082511 2.594219 3.255900 0.000000 -35.604000 7.238463 -1.260609 3.334526 10.876308 9.782135 -37.398379 2.982248 -0.429127 17.580802 -0.509911 -1.324657 -3.025848 -0.607800 -0.000000 -26.659299
24.751803 17.161417 3.792477 -113.447931 -87.895039 135.132659 -12.228433 0.801172 -1.688645 -2.976050 6.349095 -24.871150 0.605669 2.500914 54.107137 2.957409 19.231714 1.782579 3.056800 -0.000000 -35.388500 7.334627 -1.227355 3.225454 11.009587 9.560654 -36.051117 3.027256 -0.299673 16.501967 -0.482871 -1.210868 -3.064807 -0.584199 0.000000 -26.178900
24.638074 17.199811 3.748473 -116.315615 -87.850718 137.794810 -12.078046 0.740250 -1.698197 -3.312249 6.203232 -25.779464 0.572179 2.534581 54.327089 2.992939 19.401275 1.025016 2.873900 0.000000 -34.994000 7.451907 -1.182530 3.112972 11.125112 9.314436 -34.679657 3.067566 -0.168248 15.395309 -0.448922 -1.074291 -3.058361 -0.560200 -0.000000 -25.734600
24.524427 17.236868 3.704529 -119.982688 -87.781426 141.241503 -11.910813 0.698587 -1.703062 -3.669422 6.088304 -26.642415 0.525743 2.562144 54.358793 3.032271 19.585564 0.306667 2.701600 0.000000 -34.404800 7.588186 -1.126017 2.998159 11.220980 9.041760 -33.298460 3.103416 -0.035987 14.278206 -0.406274 -0.904843 -3.008094 -0.534400 0.000000 -25.342000
24.410389 17.272264 3.660768 -124.495378 -87.678814 145.526644 -11.730922 0.679703 -1.701448 -4.048654 6.001437 -27.464896 0.464275 2.586393 54.208649 3.074597 19.775781 -0.388386 2.533200 -0.000001 -33.634500 7.739252 -1.056795 2.880187 11.295174 8.744136 -31.921421 3.135313 0.096521 13.168825 -0.353726 -0.694049 -2.919789 -0.505600 -0.000000 -25.008800
24.295929 17.305733 3.617232 -129.888645 -87.533665 150.687981 -11.545899 0.686573 -1.690670 -4.451859 5.938145 -28.250739 0.385821 2.610373 53.883125 3.118950 19.961912 -1.073272 2.363000 0.000000 -32.724300 7.896959 -0.974509 2.758477 11.343889 8.425665 -30.559324 3.163807 0.229259 12.084719 -0.290891 -0.436774 -2.801948 -0.472500 0.000000 -24.738901
24.180945 17.337010 3.574065 -136.133308 -87.338193 156.699855 -11.368615 0.719429 -1.667205 -4.881330 5.892063 -29.002784 0.289286 2.636246 53.388934 3.164339 20.134271 -1.754178 2.187599 0.000000 -31.746000 8.047168 -0.881422 2.632935 11.361688 8.091967 -29.220958 3.189810 0.362692 11.041374 -0.218305 -0.131551 -2.666483 -0.434600 -0.000000 -24.529800
24.065644 17.365927 3.531286 -143.105620 -87.091376 163.442451 -11.216483 0.772057 -1.629602 -5.340254 5.854525 -29.722307 0.175061 2.664038 52.732666 3.209692 20.283634 -2.433657 2.005300 0.000000 -30.751901 8.170201 -0.782906 2.502183 11.340651 7.748209 -27.912813 3.214303 0.496982 10.048443 -0.137580 0.218357 -2.525923 -0.392000 0.000000 -24.376200
